# xmcd CD database file
#
# Track frame offsets:
#	150
#	14880
#	31557
#	49797
#	71042
#	85182
#	102220
#	122115
#	139965
#	154772
#	173695
#	190215
#	211542
#	233375
#	250850
#	263825
#
# Disc length: 3936 seconds
#
# Revision: 6
# Processed by: cddbd v1.5PL3 Copyright (c) Steve Scherf et al.
# Submitted via: CDex 1.50Beta7
#
DISCID=cf0f5e10
DTITLE=五輪真弓 - ニュー･ベスト･セレクション
DYEAR=1989
DGENRE=Pop
TTITLE0=心の友
TTITLE1=泣かないで
TTITLE2=問わず煙草
TTITLE3=空
TTITLE4=抱きしめて（愛は夢のように）
TTITLE5=リバイバル
TTITLE6=時計
TTITLE7=ハロー、マイフレンド
TTITLE8=さよならだけは言わないで
TTITLE9=恋人よ
TTITLE10=残り火
TTITLE11=雨宿り
TTITLE12=時の流れに〜鳥になれ〜
TTITLE13=恋しさは今
TTITLE14=私 少し疲れたの
TTITLE15=Wind and Roses
EXTD=YEAR: 1989
EXTT0=
EXTT1=
EXTT2=
EXTT3=
EXTT4=
EXTT5=
EXTT6=
EXTT7=
EXTT8=
EXTT9=
EXTT10=
EXTT11=
EXTT12=
EXTT13=
EXTT14=
EXTT15=
PLAYORDER=
